# File created by Blade
# Date/Time:  Tue Jan 27 19:38:24 2015
#---------------------------------------------------------
:version 1.10
:name HOM
:units
  mass 1.0
  length 1.000000
  angle deg
:documentation
     Acclaim Skeleton File
:root
   axis xyz
   order TX TY TZ RX RY RZ
   position 0.000000 0.000000 0.000000
   orientation 0 0 0
:bonedata
   begin
      id 1
      name Spine_dum
      direction 0.000000 1.000000 0.000000
      length 6.116652
      axis 0.0 0.0 0.0 xyz
   end
   begin
      id 2
      name LeftUpLeg_dum
      direction 1.000000 0.000000 0.000000
      length 4.711765
      axis 0.0 0.0 0.0 xyz
   end
   begin
      id 3
      name RightUpLeg_dum
      direction -1.000000 0.000000 0.000000
      length 4.711765
      axis 0.0 0.0 0.0 xyz
   end
   begin
      id 4
      name Spine
      direction 0.000000 1.000000 0.000000
      length 0.000000
      axis 0.0 0.0 0.0 xyz
      dof rx ry rz
   end
   begin
      id 5
      name Spine_dum1
      direction 0.000000 1.000000 0.000000
      length 15.225563
      axis 0.0 0.0 0.0 xyz
   end
   begin
      id 6
      name Spine_dum2
      direction 0.000000 1.000000 0.000000
      length 8.977654
      axis 0.0 0.0 0.0 xyz
   end
   begin
      id 7
      name Spine_dum3
      direction 0.000000 1.000000 0.000000
      length 8.977654
      axis 0.0 0.0 0.0 xyz
   end
   begin
      id 8
      name Head
      direction 0.000000 1.000000 0.000000
      length 4.527550
      axis 0.0 0.0 0.0 xyz
      dof rx ry rz
   end
   begin
      id 9
      name LeftShoulder
      direction 1.000000 0.000000 0.000000
      length 7.110130
      axis 0.0 0.0 -90.0 xyz
      dof rx ry rz
   end
   begin
      id 10
      name LeftArm
      direction 1.000000 0.000000 0.000000
      length 10.398341
      axis 0.0 0.0 -90.0 xyz
      dof rx ry rz
   end
   begin
      id 11
      name LeftForeArm
      direction 1.000000 0.000000 0.000000
      length 8.888997
      axis 0.0 0.0 -90.0 xyz
      dof ry rz rx
   end
   begin
      id 12
      name LeftHand
      direction 0.000000 0.000000 0.000000
      length 0.000000
      axis 0.0 0.0 -90.0 xyz
      dof rx ry rz
   end
   begin
      id 13
      name LeftHand_dum1
      direction 0.000000 0.000000 0.000000
      length 0.000000
      axis 0.0 0.0 -90.0 xyz
   end
   begin
      id 14
      name LeftHand_dum2
      direction 1.000000 0.000000 0.000000
      length 3.937000
      axis 0.0 0.0 -90.0 xyz
   end
   begin
      id 15
      name LeftHandThumb1
      direction 0.000000 0.000000 1.000000
      length 3.937000
      axis 0.0 0.0 -90.0 xyz
      dof rx rz ry
   end
   begin
      id 16
      name RightShoulder
      direction -1.000000 0.000000 0.000000
      length 7.110130
      axis 0.0 0.0 90.0 xyz
      dof rx ry rz
   end
   begin
      id 17
      name RightArm
      direction -1.000000 0.000000 0.000000
      length 10.398341
      axis 0.0 0.0 90.0 xyz
      dof rx ry rz
   end
   begin
      id 18
      name RightForeArm
      direction -1.000000 0.000000 0.000000
      length 8.888997
      axis 0.0 0.0 90.0 xyz
      dof ry rz rx
   end
   begin
      id 19
      name RightHand
      direction 0.000000 0.000000 0.000000
      length 0.000000
      axis 0.0 0.0 90.0 xyz
      dof rx ry rz
   end
   begin
      id 20
      name RightHand_dum1
      direction 0.000000 0.000000 0.000000
      length 0.000000
      axis 0.0 0.0 90.0 xyz
   end
   begin
      id 21
      name RightHand_dum2
      direction -1.000000 0.000000 0.000000
      length 3.937000
      axis 0.0 0.0 90.0 xyz
   end
   begin
      id 22
      name RightHandThumb1
      direction 0.000000 0.000000 1.000000
      length 3.937000
      axis 0.0 0.0 90.0 xyz
      dof rx rz ry
   end
   begin
      id 23
      name LeftUpLeg
      direction 0.000000 -1.000000 0.000000
      length 15.510451
      axis 0.0 0.0 0.0 xyz
      dof rx ry rz
   end
   begin
      id 24
      name LeftLeg
      direction 0.000000 -1.000000 0.000000
      length 14.858061
      axis 0.0 0.0 0.0 xyz
      dof rx ry rz
   end
   begin
      id 25
      name LeftFoot
      direction 0.000000 -0.258819 0.965926
      length 5.128852
      axis 15.0 0.0 0.0 xyz
      dof rx ry rz
   end
   begin
      id 26
      name LeftToeBase
      direction 0.000000 0.000000 1.000000
      length 2.952750
      axis 0.0 0.0 0.0 xyz
      dof rx ry rz
   end
   begin
      id 27
      name RightUpLeg
      direction 0.000000 -1.000000 0.000000
      length 15.510451
      axis 0.0 0.0 0.0 xyz
      dof rx ry rz
   end
   begin
      id 28
      name RightLeg
      direction 0.000000 -1.000000 0.000000
      length 14.858061
      axis 0.0 0.0 0.0 xyz
      dof rx ry rz
   end
   begin
      id 29
      name RightFoot
      direction 0.000000 -0.258819 0.965926
      length 5.128852
      axis 15.0 0.0 0.0 xyz
      dof rx ry rz
   end
   begin
      id 30
      name RightToeBase
      direction 0.000000 0.000000 1.000000
      length 2.952750
      axis 0.0 0.0 0.0 xyz
      dof rx ry rz
   end
:hierarchy
   begin
      root Spine_dum LeftUpLeg_dum RightUpLeg_dum
      Spine_dum Spine
      LeftUpLeg_dum LeftUpLeg
      RightUpLeg_dum RightUpLeg
      Spine Spine_dum1 Spine_dum2 Spine_dum3
      Spine_dum1 Head
      Spine_dum2 LeftShoulder
      Spine_dum3 RightShoulder
      LeftShoulder LeftArm
      LeftArm LeftForeArm
      LeftForeArm LeftHand
      LeftHand LeftHand_dum1 LeftHand_dum2
      LeftHand_dum1 LeftHandThumb1
      RightShoulder RightArm
      RightArm RightForeArm
      RightForeArm RightHand
      RightHand RightHand_dum1 RightHand_dum2
      RightHand_dum1 RightHandThumb1
      LeftUpLeg LeftLeg
      LeftLeg LeftFoot
      LeftFoot LeftToeBase
      RightUpLeg RightLeg
      RightLeg RightFoot
      RightFoot RightToeBase
   end

# File created by Blade
# Date/Time:  Tue Jan 27 19:38:14 2015
# Frame Rate: 120.000 fps
#------------------------------------------------------
:FULLY-SPECIFIED
:DEGREES
578
root 4.625315 32.296984 1.901884 -5.291431 9.462460 1.110994
Spine 5.458868 26.744058 2.456665
Head 6.592760 -0.925905 1.806055
LeftShoulder -1.436847 -10.296349 25.257354
LeftArm -2.088186 49.205659 -102.302439
LeftForeArm 4.259294 -0.000000 15.826592
LeftHand 10.282621 -0.000000 -8.200776
LeftHandThumb1 -26.253704 0.000000 33.147579
RightShoulder 1.962436 6.516554 -24.932286
RightArm 39.818771 -37.284894 94.219653
RightForeArm -2.928811 -0.000000 122.253108
RightHand 26.431916 -0.000000 -2.903612
RightHandThumb1 -24.326973 -0.000000 -32.862282
LeftUpLeg 7.167269 -7.870056 -4.430291
LeftLeg 5.072976 -0.000000 -0.000000
LeftFoot -15.467283 9.881085 -20.216965
LeftToeBase 16.841342 -0.000000 -0.000000
RightUpLeg 9.824271 -13.507317 1.185602
RightLeg 1.998632 -0.000000 -0.000000
RightFoot -14.292761 -15.707389 13.414174
RightToeBase 9.403581 -0.000000 -0.000000
579
root 4.620256 32.296667 1.904677 -5.300070 9.412619 1.108708
Spine 5.441255 27.032000 2.486532
Head 6.750707 -1.179237 1.858296
LeftShoulder -1.095661 -10.433755 25.239212
LeftArm -2.122667 49.213556 -102.357239
LeftForeArm 4.288580 -0.000000 15.724710
LeftHand 10.224185 -0.000000 -8.224298
LeftHandThumb1 -26.253704 0.000000 33.147579
RightShoulder 1.646225 6.512994 -24.971460
RightArm 40.398029 -37.544720 93.883604
RightForeArm -1.432879 -0.000000 120.770125
RightHand 26.652115 -0.000000 -1.814185
RightHandThumb1 -24.326973 -0.000000 -32.862282
LeftUpLeg 7.183895 -7.847735 -4.420513
LeftLeg 5.075621 -0.000000 -0.000000
LeftFoot -15.487550 9.892159 -20.227356
LeftToeBase 16.815904 -0.000000 -0.000000
RightUpLeg 9.828370 -13.521536 1.188711
RightLeg 2.005866 -0.000000 -0.000000
RightFoot -14.291989 -15.638528 13.428869
RightToeBase 9.431115 -0.000000 -0.000000
580
root 4.613895 32.297561 1.907354 -5.308043 9.338938 1.114694
Spine 5.410332 26.980838 2.502247
Head 6.959888 -1.099377 1.828158
LeftShoulder -1.064641 -10.429041 25.244127
LeftArm -2.186784 49.234935 -102.404731
LeftForeArm 4.331267 -0.000000 15.656960
LeftHand 10.209785 0.000000 -8.096829
LeftHandThumb1 -26.253704 0.000000 33.147579
RightShoulder 1.816033 6.806668 -25.055759
RightArm 40.837402 -37.905356 93.614614
RightForeArm -1.009992 -0.000000 119.212284
RightHand 25.848558 -0.000000 -1.245156
RightHandThumb1 -24.326973 -0.000000 -32.862282
LeftUpLeg 7.204929 -7.784630 -4.410929
LeftLeg 5.069405 -0.000000 -0.000000
LeftFoot -15.492740 9.892332 -20.257615
LeftToeBase 16.821351 -0.000000 -0.000000
RightUpLeg 9.828067 -13.510941 1.189877
RightLeg 2.014606 -0.000000 -0.000000
RightFoot -14.279566 -15.598734 13.402433
RightToeBase 9.420929 -0.000000 -0.000000
581
root 4.607200 32.297623 1.908567 -5.319929 9.256902 1.118119
Spine 5.402227 26.996178 2.522040
Head 7.124524 -1.061352 1.836659
LeftShoulder -1.003769 -10.480766 25.260243
LeftArm -2.258730 49.296727 -102.484252
LeftForeArm 4.337289 -0.000000 15.553594
LeftHand 10.173675 -0.000000 -8.106645
LeftHandThumb1 -26.253704 0.000000 33.147579
RightShoulder 1.855830 6.995976 -25.144089
RightArm 41.444064 -38.312694 93.227560
RightForeArm -0.533166 -0.000000 117.519024
RightHand 25.066824 -0.000000 -0.767152
RightHandThumb1 -24.326973 -0.000000 -32.862282
LeftUpLeg 7.226604 -7.760819 -4.403439
LeftLeg 5.058130 -0.000000 -0.000000
LeftFoot -15.579773 9.915266 -20.435687
LeftToeBase 17.123377 -0.000000 -0.000000
RightUpLeg 9.828268 -13.447452 1.204393
RightLeg 2.016724 -0.000000 -0.000000
RightFoot -14.265880 -15.597193 13.369966
RightToeBase 9.475682 -0.000000 -0.000000
582
root 4.599201 32.298279 1.910743 -5.342376 9.186457 1.122260
Spine 5.392281 26.851923 2.560400
Head 7.357657 -0.851022 1.772020
LeftShoulder -1.052229 -10.415695 25.242394
LeftArm -2.247806 49.351564 -102.455849
LeftForeArm 4.224126 0.000000 15.432857
LeftHand 10.285252 -0.000000 -7.827304
LeftHandThumb1 -26.253704 0.000000 33.147579
RightShoulder 2.078414 7.243397 -25.249937
RightArm 42.051264 -38.702375 92.907415
RightForeArm -0.191166 -0.000000 115.680915
RightHand 24.832479 -0.000000 -0.174402
RightHandThumb1 -24.326973 -0.000000 -32.862282
LeftUpLeg 7.261719 -7.740235 -4.399467
LeftLeg 5.050649 -0.000000 -0.000000
LeftFoot -15.600939 9.965371 -20.470098
LeftToeBase 17.128296 -0.000000 -0.000000
RightUpLeg 9.847223 -13.437725 1.209937
RightLeg 2.011555 -0.000000 -0.000000
RightFoot -14.242305 -15.574688 13.330846
RightToeBase 9.438066 -0.000000 -0.000000
583
root 4.591805 32.299531 1.913068 -5.344834 9.099060 1.122194
Spine 5.365855 26.729815 2.600913
Head 7.560121 -0.678683 1.682913
LeftShoulder -1.119257 -10.344085 25.207621
LeftArm -2.237665 49.439113 -102.408918
LeftForeArm 4.234678 -0.000000 15.338912
LeftHand 10.364789 -0.000000 -7.931753
LeftHandThumb1 -26.253704 0.000000 33.147579
RightShoulder 2.281887 7.357072 -25.403357
RightArm 42.898529 -39.183497 92.449715
RightForeArm -0.218323 0.000000 113.650334
RightHand 24.904490 0.000000 -0.482700
RightHandThumb1 -24.326973 -0.000000 -32.862282
LeftUpLeg 7.274298 -7.718857 -4.389641
LeftLeg 5.052732 -0.000000 -0.000000
LeftFoot -15.623085 10.006919 -20.516811
LeftToeBase 17.093446 -0.000000 -0.000000
RightUpLeg 9.841177 -13.400986 1.225649
RightLeg 2.010675 -0.000000 -0.000000
RightFoot -14.216803 -15.546951 13.299869
RightToeBase 9.498418 -0.000000 -0.000000
584
root 4.585468 32.299344 1.915441 -5.348598 9.001346 1.124149
Spine 5.360537 26.951525 2.622378
Head 7.669948 -0.827066 1.773531
LeftShoulder -0.938388 -10.410347 25.203421
LeftArm -2.187446 49.477706 -102.404394
LeftForeArm 4.332494 -0.000000 15.211299
LeftHand 10.332995 0.000000 -7.993125
LeftHandThumb1 -26.253704 0.000000 33.147579
RightShoulder 2.110847 7.414714 -25.524328
RightArm 43.626243 -39.618696 92.066389
RightForeArm 0.177220 -0.000000 111.623624
RightHand 24.581544 -0.000000 0.532712
RightHandThumb1 -24.326973 -0.000000 -32.862282
LeftUpLeg 7.293447 -7.705440 -4.388509
LeftLeg 5.055003 -0.000000 -0.000000
LeftFoot -15.590610 10.103483 -20.368225
LeftToeBase 16.844851 -0.000000 -0.000000
RightUpLeg 9.836676 -13.336347 1.240901
RightLeg 2.006928 -0.000000 -0.000000
RightFoot -14.183513 -15.527628 13.255227
RightToeBase 9.388789 -0.000000 -0.000000
585
root 4.575845 32.296849 1.917784 -5.381342 8.909321 1.120175
Spine 5.434388 27.385085 2.659598
Head 7.648198 -1.214366 1.936849
LeftShoulder -0.597759 -10.685689 25.214144
LeftArm -2.247732 49.493446 -102.519159
LeftForeArm 4.463155 -0.000000 15.064735
LeftHand 10.314295 0.000000 -8.013324
LeftHandThumb1 -26.253704 0.000000 33.147579
RightShoulder 1.633907 7.296601 -25.692056
RightArm 44.526822 -40.090482 91.495124
RightForeArm 0.670565 -0.000000 109.572711
RightHand 24.178727 0.000000 1.138576
RightHandThumb1 -24.326973 -0.000000 -32.862282
LeftUpLeg 7.342893 -7.705451 -4.382096
LeftLeg 5.049518 -0.000000 -0.000000
LeftFoot -15.647577 10.175714 -20.396091
LeftToeBase 16.736683 -0.000000 -0.000000
RightUpLeg 9.862598 -13.273794 1.262128
RightLeg 2.002506 -0.000000 -0.000000
RightFoot -14.188910 -15.517319 13.233507
RightToeBase 9.385150 -0.000000 -0.000000
586
root 4.567366 32.297468 1.920844 -5.378933 8.806242 1.114697
Spine 5.405429 27.362703 2.682953
Head 7.795224 -1.125117 1.963548
LeftShoulder -0.627779 -10.659978 25.189086
LeftArm -2.228477 49.527528 -102.490408
LeftForeArm 4.530768 0.000000 14.925542
LeftHand 10.360217 0.000000 -7.930550
LeftHandThumb1 -26.253704 0.000000 33.147579
RightShoulder 1.741019 7.540828 -25.807709
RightArm 45.262914 -40.595348 91.140782
RightForeArm 1.035818 -0.000000 107.216686
RightHand 23.650325 -0.000000 1.966678
RightHandThumb1 -24.326973 -0.000000 -32.862282
LeftUpLeg 7.354627 -7.660374 -4.358842
LeftLeg 5.035809 -0.000000 -0.000000
LeftFoot -15.751486 10.191942 -20.603171
LeftToeBase 17.099113 -0.000000 -0.000000
RightUpLeg 9.848639 -13.229192 1.285543
RightLeg 2.006305 -0.000000 -0.000000
RightFoot -14.165848 -15.474441 13.206862
RightToeBase 9.437202 -0.000000 -0.000000
587
root 4.560074 32.298180 1.923958 -5.357546 8.698496 1.100730
Spine 5.353857 27.344781 2.703438
Head 7.914971 -1.045932 1.997134
LeftShoulder -0.681906 -10.630611 25.168475
LeftArm -2.204696 49.557953 -102.468475
LeftForeArm 4.615859 -0.000000 14.783465
LeftHand 10.345483 -0.000000 -7.985996
LeftHandThumb1 -26.253704 0.000000 33.147579
RightShoulder 1.817873 7.778441 -25.894978
RightArm 46.113499 -41.211886 90.633707
RightForeArm 1.416652 -0.000000 104.717570
RightHand 23.778364 0.000000 1.879958
RightHandThumb1 -24.326973 -0.000000 -32.862282
LeftUpLeg 7.356681 -7.656838 -4.340527
LeftLeg 5.022342 -0.000000 -0.000000
LeftFoot -15.722774 10.305049 -20.469381
LeftToeBase 16.800463 -0.000000 -0.000000
RightUpLeg 9.818383 -13.204306 1.314850
RightLeg 2.000853 -0.000000 -0.000000
RightFoot -14.121741 -15.407237 13.177288
RightToeBase 9.394436 -0.000000 -0.000000
